<?xml version="1.0" encoding="UTF-8" standalone="no"?>
<!-- Created with Inkscape (http://www.inkscape.org/) -->

<svg
   width="307.15747"
   height="307.15637"
   viewBox="0 0 81.268745 81.268454"
   version="1.1"
   id="svg1"
   xmlns="http://www.w3.org/2000/svg"
   xmlns:svg="http://www.w3.org/2000/svg">
  <defs
     id="defs1" />
  <g
     id="layer4"
     style="display:none"
     transform="translate(-12.293404,-117.58662)">
    <g
       id="g53"
       style="display:none"
       transform="translate(-3.8146974e-6,106.39532)">
      <circle
         style="font-variation-settings:'wght' 380;display:none;fill:none;stroke:#ff0000;stroke-width:1.05833;stroke-linecap:round;stroke-linejoin:round;stroke-dasharray:none;stroke-opacity:1;paint-order:stroke fill markers"
         id="circle49"
         cx="52.916668"
         cy="52.916668"
         r="52.916664" />
      <circle
         style="font-variation-settings:'wght' 380;display:none;fill:none;stroke:#ff0000;stroke-width:1.05833;stroke-linecap:round;stroke-linejoin:round;stroke-dasharray:none;stroke-opacity:1;paint-order:stroke fill markers"
         id="circle50"
         cx="52.916668"
         cy="52.916668"
         r="32.216293" />
      <circle
         style="font-variation-settings:'wght' 380;display:none;fill:none;stroke:#ff0000;stroke-width:1.05833;stroke-linecap:round;stroke-linejoin:round;stroke-dasharray:none;stroke-opacity:1;paint-order:stroke fill markers"
         id="circle51"
         cx="52.916668"
         cy="52.916668"
         r="19.825411" />
      <circle
         style="font-variation-settings:'wght' 380;display:none;fill:none;stroke:#ff0000;stroke-width:1.05833;stroke-linecap:round;stroke-linejoin:round;stroke-dasharray:none;stroke-opacity:1;paint-order:stroke fill markers"
         id="circle52"
         cx="52.916668"
         cy="52.916668"
         r="11.688031" />
      <path
         id="rect52"
         style="font-variation-settings:'wght' 380;display:inline;fill:#000000;fill-opacity:1;stroke:#000000;stroke-width:2.64583;stroke-linecap:round;stroke-linejoin:round;stroke-dasharray:none;stroke-opacity:1;paint-order:stroke fill markers"
         d="M -10.259548,-21.923357 H 10.259548 V -64.57592 H 52.91211 V -85.095016 H 16.962584 L 0,-74.835468 -16.962584,-85.095016 H -52.91211 v 20.519096 h 42.652562 z m 0,-69.876157 h 20.519096 v -35.948066 h -20.519096 z"
         transform="rotate(135)" />
    </g>
  </g>
  <g
     id="g19"
     style="display:none"
     transform="translate(-12.282295,-12.28245)">
    <circle
       style="font-variation-settings:'wght' 380;display:inline;fill:none;stroke:#ff0000;stroke-width:1.05833;stroke-linecap:round;stroke-linejoin:round;stroke-dasharray:none;stroke-opacity:1;paint-order:stroke fill markers"
       id="circle15"
       cx="52.916668"
       cy="52.916668"
       r="52.916664" />
    <circle
       style="font-variation-settings:'wght' 380;display:inline;fill:none;stroke:#ff0000;stroke-width:1.05833;stroke-linecap:round;stroke-linejoin:round;stroke-dasharray:none;stroke-opacity:1;paint-order:stroke fill markers"
       id="circle16"
       cx="52.916668"
       cy="52.916668"
       r="32.216293" />
    <circle
       style="font-variation-settings:'wght' 380;display:inline;fill:none;stroke:#ff0000;stroke-width:1.05833;stroke-linecap:round;stroke-linejoin:round;stroke-dasharray:none;stroke-opacity:1;paint-order:stroke fill markers"
       id="circle17"
       cx="52.916668"
       cy="52.916668"
       r="19.825411" />
    <circle
       style="font-variation-settings:'wght' 380;display:inline;fill:none;stroke:#ff0000;stroke-width:1.05833;stroke-linecap:round;stroke-linejoin:round;stroke-dasharray:none;stroke-opacity:1;paint-order:stroke fill markers"
       id="circle18"
       cx="52.916668"
       cy="52.916668"
       r="11.688031" />
    <circle
       style="font-variation-settings:'wght' 380;display:inline;fill:none;stroke:#ff0000;stroke-width:1.05833;stroke-linecap:round;stroke-linejoin:round;stroke-dasharray:none;stroke-opacity:1;paint-order:stroke fill markers"
       id="circle19"
       cx="52.916668"
       cy="52.916668"
       r="11.688031" />
    <rect
       style="font-variation-settings:'wght' 380;fill:none;fill-opacity:1;stroke:#ff0000;stroke-width:1.04667;stroke-linecap:round;stroke-linejoin:round;stroke-dasharray:none;stroke-opacity:1;paint-order:markers fill stroke"
       id="rect20"
       width="22.965616"
       height="104.36456"
       x="63.352661"
       y="-52.182285"
       transform="rotate(45)" />
    <rect
       style="font-variation-settings:'wght' 380;fill:none;fill-opacity:1;stroke:#ff0000;stroke-width:1.04667;stroke-linecap:round;stroke-linejoin:round;stroke-dasharray:none;stroke-opacity:1;paint-order:markers fill stroke"
       id="rect21"
       width="22.965616"
       height="104.36456"
       x="-11.482804"
       y="22.653185"
       transform="rotate(-45)" />
    <path
       style="font-variation-settings:'wght' 380;fill:none;fill-opacity:1;stroke:#ff0000;stroke-width:1.05833;stroke-linecap:round;stroke-linejoin:round;stroke-dasharray:none;stroke-opacity:1;paint-order:markers fill stroke"
       d="m 16.029332,121.32239 74.316173,74.31618 z"
       id="path21"
       transform="translate(-0.01110901,-105.30417)" />
  </g>
  <g
     id="g26"
     style="display:inline"
     transform="translate(-12.282295,-12.28245)">
    <path
       id="rect25"
       style="font-variation-settings:'wght' 380;fill:#000000;fill-opacity:1;stroke:none;stroke-width:1.04667;stroke-linecap:round;stroke-linejoin:round;stroke-dasharray:none;stroke-opacity:1;paint-order:markers fill stroke"
       d="m 22.653089,-0.89942 -2.9e-5,1.798833 a 10.583165,10.583165 45.000455 0 0 10.583165,10.583333 l 30.116492,0 V 41.599238 A 10.583165,10.583165 44.999545 0 0 73.93605,52.182403 l 1.798833,-2.9e-5 A 10.583596,10.583596 134.9998 0 0 86.318311,41.598873 l 1.76e-4,-19.532794 A 17.247223,17.247223 58.466183 0 0 76.883055,6.689233 L 63.151012,-0.287031 76.78924,-6.877805 a 16.868825,16.868825 122.10375 0 0 9.528976,-15.188281 V -41.599245 A 10.583164,10.583164 44.999543 0 0 75.734883,-52.182409 l -1.798833,2.8e-5 a 10.583407,10.583407 134.99929 0 0 -10.583238,10.583502 l 2.7e-4,30.116126 -30.116492,0 A 10.583501,10.583501 135.00046 0 0 22.653089,-0.89942 Z m 68.343805,-10.583333 -3.65e-4,22.965499 25.437821,0 a 10.583499,10.583499 135.00045 0 0 10.5835,-10.583333 l 2e-5,-1.798833 a 10.583167,10.583167 45.000449 0 0 -10.58316,-10.583333 z"
       transform="rotate(45)" />
  </g>
</svg>
