<?xml version="1.0" encoding="UTF-8" standalone="no"?>
<!-- Created with Inkscape (http://www.inkscape.org/) -->

<svg
   viewBox="0 0 81.268745 81.268462"
   version="1.1"
   xmlns="http://www.w3.org/2000/svg"
   xmlns:svg="http://www.w3.org/2000/svg">
  <path
     d="m 22.653089,-0.89942 -2.9e-5,1.798833 a 10.583165,10.583165 45.000455 0 0 10.583165,10.583333 l 30.116492,0 V 41.599238 A 10.583165,10.583165 44.999545 0 0 73.93605,52.182403 l 1.798833,-2.9e-5 A 10.583596,10.583596 134.9998 0 0 86.318311,41.598873 l 1.76e-4,-19.532794 A 17.247223,17.247223 58.466183 0 0 76.883055,6.689233 L 63.151012,-0.287031 76.78924,-6.877805 a 16.868825,16.868825 122.10375 0 0 9.528976,-15.188281 V -41.599245 A 10.583164,10.583164 44.999543 0 0 75.734883,-52.182409 l -1.798833,2.8e-5 a 10.583407,10.583407 134.99929 0 0 -10.583238,10.583502 l 2.7e-4,30.116126 -30.116492,0 A 10.583501,10.583501 135.00046 0 0 22.653089,-0.89942 Z m 68.343805,-10.583333 -3.65e-4,22.965499 25.437821,0 a 10.583499,10.583499 135.00045 0 0 10.5835,-10.583333 l 2e-5,-1.798833 a 10.583167,10.583167 45.000449 0 0 -10.58316,-10.583333 z"
     transform="rotate(45,8.6850764,-20.967264)"
    />
</svg>
